<svg width="107" height="115" viewBox="0 0 107 115" fill="none" xmlns="http://www.w3.org/2000/svg">
<path opacity="0.3" d="M34.3245 103.746V105.722C34.3245 106.524 34.2359 107.23 34.0588 107.839C33.887 108.443 33.6344 108.949 33.301 109.355C32.9677 109.761 32.5667 110.066 32.0979 110.269C31.6292 110.472 31.1005 110.574 30.512 110.574C29.9443 110.574 29.426 110.472 28.9573 110.269C28.4885 110.066 28.0849 109.761 27.7463 109.355C27.4078 108.949 27.1448 108.443 26.9573 107.839C26.775 107.23 26.6838 106.524 26.6838 105.722V103.746C26.6838 102.943 26.775 102.24 26.9573 101.636C27.1396 101.027 27.4 100.519 27.7385 100.113C28.0771 99.7065 28.4807 99.4018 28.9495 99.1987C29.4182 98.9903 29.9364 98.8862 30.5042 98.8862C31.0927 98.8862 31.6213 98.9903 32.0901 99.1987C32.564 99.4018 32.9651 99.7065 33.2932 100.113C33.6265 100.519 33.8818 101.027 34.0588 101.636C34.2359 102.24 34.3245 102.943 34.3245 103.746ZM32.9026 105.722V103.73C32.9026 103.105 32.8505 102.568 32.7463 102.121C32.6422 101.667 32.4885 101.298 32.2854 101.011C32.0823 100.725 31.8323 100.514 31.5354 100.378C31.2385 100.238 30.8948 100.167 30.5042 100.167C30.1344 100.167 29.801 100.238 29.5042 100.378C29.2125 100.514 28.9625 100.725 28.7542 101.011C28.5458 101.298 28.3844 101.667 28.2698 102.121C28.1604 102.568 28.1057 103.105 28.1057 103.73V105.722C28.1057 106.352 28.1604 106.894 28.2698 107.347C28.3844 107.795 28.5458 108.165 28.7542 108.456C28.9677 108.743 29.2229 108.956 29.5198 109.097C29.8167 109.233 30.1474 109.3 30.512 109.3C30.9026 109.3 31.2463 109.233 31.5432 109.097C31.8453 108.956 32.0953 108.743 32.2932 108.456C32.4963 108.165 32.6474 107.795 32.7463 107.347C32.8505 106.894 32.9026 106.352 32.9026 105.722ZM37.9885 99.0424V110.417H36.551V99.0424H37.9885ZM41.8245 104.16V105.394H37.7151V104.16H41.8245ZM42.4729 99.0424V100.277H37.7151V99.0424H42.4729ZM45.6917 99.0424V110.417H44.2542V99.0424H45.6917ZM49.5276 104.16V105.394H45.4182V104.16H49.5276ZM50.176 99.0424V100.277H45.4182V99.0424H50.176ZM53.4573 99.0424V110.417H52.0198V99.0424H53.4573ZM61.6526 106.8H63.0901C63.0536 107.581 62.8948 108.256 62.6135 108.824C62.3375 109.386 61.9338 109.818 61.4026 110.121C60.8765 110.423 60.2177 110.574 59.426 110.574C58.8583 110.574 58.3453 110.462 57.887 110.238C57.4286 110.014 57.0354 109.693 56.7073 109.277C56.3844 108.855 56.137 108.35 55.9651 107.761C55.7932 107.173 55.7073 106.511 55.7073 105.777V103.675C55.7073 102.946 55.7932 102.287 55.9651 101.699C56.1422 101.11 56.3948 100.608 56.7229 100.191C57.0562 99.769 57.4599 99.4461 57.9338 99.2221C58.413 98.9981 58.9547 98.8862 59.5588 98.8862C60.2984 98.8862 60.9234 99.0346 61.4338 99.3315C61.9495 99.6231 62.3453 100.053 62.6213 100.621C62.9026 101.183 63.0588 101.873 63.0901 102.691H61.6526C61.6161 102.092 61.5224 101.605 61.3713 101.23C61.2203 100.85 60.9963 100.571 60.6995 100.394C60.4078 100.212 60.0276 100.121 59.5588 100.121C59.1422 100.121 58.7802 100.204 58.4729 100.371C58.1708 100.537 57.9208 100.777 57.7229 101.089C57.5302 101.397 57.3844 101.769 57.2854 102.206C57.1917 102.639 57.1448 103.123 57.1448 103.66V105.777C57.1448 106.277 57.1838 106.743 57.262 107.175C57.3453 107.608 57.4755 107.988 57.6526 108.316C57.8349 108.639 58.0719 108.891 58.3635 109.074C58.6552 109.256 59.0094 109.347 59.426 109.347C59.9521 109.347 60.3687 109.261 60.676 109.089C60.9833 108.917 61.2099 108.644 61.3557 108.269C61.5068 107.894 61.6057 107.404 61.6526 106.8ZM71.1526 109.191V110.417H66.2151V109.191H71.1526ZM66.4729 99.0424V110.417H65.0354V99.0424H66.4729ZM70.4885 103.933V105.16H66.2151V103.933H70.4885ZM71.0745 99.0424V100.277H66.2151V99.0424H71.0745ZM72.9963 99.0424H76.176C76.9156 99.0424 77.5354 99.1726 78.0354 99.433C78.5406 99.6935 78.9208 100.079 79.176 100.589C79.4364 101.095 79.5667 101.717 79.5667 102.456C79.5667 102.977 79.4807 103.454 79.3088 103.886C79.137 104.313 78.887 104.678 78.5588 104.98C78.2307 105.277 77.8323 105.498 77.3635 105.644L76.9729 105.808H74.137L74.1213 104.581H76.1604C76.5979 104.581 76.9625 104.488 77.2542 104.3C77.5458 104.108 77.7646 103.85 77.9104 103.527C78.0562 103.204 78.1292 102.847 78.1292 102.456C78.1292 102.019 78.064 101.636 77.9338 101.308C77.8036 100.98 77.5953 100.727 77.3088 100.55C77.0276 100.368 76.65 100.277 76.176 100.277H74.4338V110.417H72.9963V99.0424ZM78.4573 110.417L76.1917 105.261L77.6838 105.253L79.9963 110.324V110.417H78.4573Z" fill="white"/>
<g opacity="0.3">
<path d="M69.5515 51.3654L64.1806 49.2674C63.9895 49.1928 63.5932 49.0949 63.1456 49.2674L57.7747 51.3654C57.2758 51.5612 56.9495 52.0181 56.9495 52.5263C56.9495 57.7294 60.1524 61.3286 63.1456 62.4989C63.5932 62.6714 63.9848 62.5735 64.1806 62.4989C66.5724 61.5664 70.3768 58.3308 70.3768 52.5263C70.3768 52.0181 70.0504 51.5612 69.5515 51.3654ZM63.6631 60.2843V51.468L68.1156 53.207C67.8545 57.2678 65.2763 59.5197 63.6631 60.2843ZM50.9818 50.6614C54.278 50.6614 56.9495 47.9899 56.9495 44.6937C56.9495 41.3975 54.278 38.726 50.9818 38.726C47.6856 38.726 45.0141 41.3975 45.0141 44.6937C45.0141 47.9899 47.6856 50.6614 50.9818 50.6614ZM55.4575 52.5263C55.4575 52.4097 55.4948 52.3025 55.5088 52.1906C55.3923 52.1859 55.2804 52.1533 55.1592 52.1533H54.3806C53.3455 52.6289 52.194 52.8993 50.9818 52.8993C49.7696 52.8993 48.6227 52.6289 47.583 52.1533H46.8044C43.345 52.1533 40.5383 54.96 40.5383 58.4194V60.3589C40.5383 61.5944 41.5407 62.5968 42.7762 62.5968H59.1874C59.5044 62.5968 59.8074 62.5268 60.0825 62.4103C57.5649 60.4102 55.4575 56.9694 55.4575 52.5263Z" fill="white"/>
</g>
<g opacity="0.3" clip-path="url(#clip0_13_2987)">
<path d="M22.0774 31.9266L25.0435 33.6391C24.7968 34.0188 24.5604 34.4044 24.3343 34.796C15.0347 50.9034 20.5389 71.5043 36.6463 80.8039C37.0376 81.0298 37.4349 81.2455 37.8382 81.4508L36.1246 84.4188C42.2641 87.6748 48.9348 89.0117 55.4573 88.6552C55.3446 87.5184 55.2526 86.3935 55.1502 85.2627C61.5323 84.9352 67.7356 82.8006 72.9905 79.0741C73.6041 80.0329 74.2237 80.9815 74.8373 81.9403C79.1106 78.9388 82.8174 74.9919 85.602 70.1689C90.1774 62.2441 91.4824 53.3241 89.9508 44.965L86.6523 45.8499C85.0021 36.3643 79.3148 27.6395 70.324 22.4486C69.809 22.1513 69.2984 21.8703 68.7759 21.6098L70.4895 18.6419C67.1664 16.9294 63.677 15.7667 60.1555 15.1351C59.9231 16.2513 59.7068 17.3631 59.5009 18.4809C51.2464 16.9854 42.7424 18.6573 35.6949 23.0389C35.2958 21.9703 34.8863 20.8957 34.4871 19.8271C29.5799 22.7374 25.2853 26.7985 22.0774 31.9266ZM69.3049 24.2374C84.403 32.9543 89.587 52.326 80.8645 67.4338C72.142 82.5415 52.7736 87.7379 37.6756 79.0211C22.5775 70.3042 17.3935 50.9325 26.116 35.8247C34.8385 20.7169 54.2069 15.5205 69.3049 24.2374Z" fill="white"/>
</g>
<defs>
<clipPath id="clip0_13_2987">
<rect width="74.1469" height="74.1469" fill="white" transform="translate(67.0725 102.287) rotate(-150)"/>
</clipPath>
</defs>
</svg>
